<svg xmlns="http://www.w3.org/2000/svg" version="1.1" width="80" height="80" viewBox="5 5 85 85"><g transform="translate(34.656, 64.128)"><path d="M0-32.3L0-32.3Q0-32.69 0.29-33 0.58-33.31 0.96-33.31L0.96-33.31Q1.44-33.31 1.68-32.98L1.68-32.98Q1.82-32.83 3.94-27.22L3.94-27.22 6.05-21.65 20.64-21.65 22.7-27.17Q23.18-28.46 23.74-29.88 24.29-31.3 24.6-32.06 24.91-32.83 24.91-32.88L24.91-32.88Q25.15-33.31 25.82-33.31L25.82-33.31Q26.69-33.22 26.69-32.35L26.69-32.35Q26.69-32.16 20.45-15.79 14.21 0.58 14.06 0.72L14.06 0.72Q13.82 1.06 13.34 1.06 12.86 1.06 12.62 0.72L12.62 0.72Q12.48 0.53 6.26-15.77 0.05-32.06 0-32.3ZM19.87-19.68L19.87-19.68Q19.87-19.73 13.34-19.73 6.82-19.73 6.82-19.68L6.82-19.68 13.34-2.64Q19.25-18.05 19.87-19.68Z" fill="#404040"></path></g></svg>